<svg xmlns="http://www.w3.org/2000/svg" width="18" height="18" viewBox="0 0 18 18">
  <path id="icons8-behance" d="M5,3A2,2,0,0,0,3,5V19a2,2,0,0,0,2,2H19a2,2,0,0,0,2-2V5a2,2,0,0,0-2-2ZM6.406,7.688H9c2.3,0,2.688,1.414,2.688,2.313a1.869,1.869,0,0,1-1.094,1.813,1.785,1.785,0,0,1,1.219,1.875c.1,1.8-1.023,2.5-2.625,2.5H6.406Zm7,0h3.688v1H13.406ZM8.094,9.094v2.094H9c.6,0,1-.2,1-1,0-.7-.3-1.094-1-1.094Zm7.5.719c1.4,0,2.406.793,2.406,3.094v.688H14.594A1.218,1.218,0,0,0,15.813,15a1.763,1.763,0,0,0,1.375-.594l.719,1a2.812,2.812,0,0,1-2.094.906c-1.5,0-2.719-.8-2.719-2.906v-.5C13.094,10.606,14.293,9.813,15.594,9.813Zm-.187,1.281c-.3,0-.906.113-.906,1.313h1.688S16.406,11.094,15.406,11.094ZM8.094,12.5v2.313H9.188c.6,0,.906-.426.906-1.125.1-.8-.18-1.187-.781-1.187Z" transform="translate(-3 -3)" fill="#fff"/>
</svg>
