<svg xmlns="http://www.w3.org/2000/svg" width="18" height="18" viewBox="0 0 18 18">
  <path id="icons8-linkedin" d="M19,3H5A2,2,0,0,0,3,5V19a2,2,0,0,0,2,2H19a2,2,0,0,0,2-2V5A2,2,0,0,0,19,3ZM9,17H6.477V10H9ZM7.694,8.717a1.2,1.2,0,0,1-1.286-1.2,1.222,1.222,0,0,1,1.371-1.2,1.2,1.2,0,0,1,1.286,1.2A1.222,1.222,0,0,1,7.694,8.717ZM18,17H15.558V13.174c0-1.058-.651-1.3-.9-1.3s-1.058.163-1.058,1.3V17H11.082V10h2.523v.977A2.281,2.281,0,0,1,15.8,10c1.221,0,2.2.977,2.2,3.174Z" transform="translate(-3 -3)" fill="#fff"/>
</svg>
