<svg xmlns="http://www.w3.org/2000/svg" width="20" height="16" viewBox="0 0 20 16">
  <path id="icons8-youtube" d="M21.582,6.186a2.506,2.506,0,0,0-1.768-1.768C18.254,4,12,4,12,4s-6.254,0-7.814.418A2.506,2.506,0,0,0,2.418,6.186,35.643,35.643,0,0,0,2,12a35.643,35.643,0,0,0,.418,5.814,2.506,2.506,0,0,0,1.768,1.768C5.746,20,12,20,12,20s6.254,0,7.814-.418a2.5,2.5,0,0,0,1.768-1.768A35.643,35.643,0,0,0,22,12,35.643,35.643,0,0,0,21.582,6.186ZM10,15.464V8.536L16,12Z" transform="translate(-2 -4)" fill="#fff"/>
</svg>
