<svg xmlns="http://www.w3.org/2000/svg" width="175.204" height="65.556" viewBox="0 0 175.204 65.556">
  <g id="Group_12" data-name="Group 12" transform="translate(0 0)" style="mix-blend-mode: normal;isolation: isolate">
    <path id="Path_9" data-name="Path 9" d="M592.944-217.167c-1.806,1.506-1.875,1.634-1.32,2.147.521.481.833.513,2.188.224,1.424-.288,2.014-.224,5.452.769a39.924,39.924,0,0,0,4.167.993c.347-.128-7.292-5.415-8.021-5.576A5.84,5.84,0,0,0,592.944-217.167Z" transform="translate(-428.238 218.614)" fill="#fff"/>
    <path id="Path_10" data-name="Path 10" d="M423.59-212.423a1.8,1.8,0,0,0-.59,1.089c0,.545.9,1.346,1.806,1.634.8.256.486.9-.764,1.794-1.146.769-1.076,1.634.174,1.634,1.007,0,2.5-1.314,3.16-2.756.938-2.051-.1-3.973-2.118-3.973A2.62,2.62,0,0,0,423.59-212.423Z" transform="translate(-306.887 214.799)" fill="#fff"/>
    <path id="Path_11" data-name="Path 11" d="M537.89-208.263c-2.708,1.282-3.924,2.82-4.1,5.223a4.122,4.122,0,0,0,.729,3.268,7.235,7.235,0,0,0,1.945,2.019c.868.545.972.673.486.833a1.191,1.191,0,0,1-1.042-.224c-.451-.385-4.375-1.6-7.848-2.4-1.563-.352-1.667-.32-2.57.481a3.889,3.889,0,0,1-1.181.833c-.174,0-.313.288-.313.609,0,.385,1.736,2.115,4.549,4.518,2.535,2.147,4.931,4.294,5.382,4.774a4.7,4.7,0,0,0,2.813,1.282c2.465.513,2.674.609,2.188,1.154-.243.288-.208,1.57.174,4.518.729,5.7.8,5.864,1.736,6.088l.833.192-1.181,1.474c-2.153,2.563-2.4,4.9-.764,7.146a15.764,15.764,0,0,0,3.715,2.724c3.75,2.115,4.514,3.108,4.514,5.7,0,2.371-.625,3.4-2.083,3.4a21.887,21.887,0,0,1-6.563-1.474,5.506,5.506,0,0,0-2.188-.577c-.66.385-.035,3.653.833,4.55,1.945,1.923,6.181,2.628,9.237,1.506,1.806-.673,4.445-3.3,4.931-4.9a10.456,10.456,0,0,0-.174-5.736c-.625-1.891-2.153-3.332-5.973-5.64-2.674-1.57-3.264-2.467-2.674-4.005.59-1.474,1.979-2.115,5.1-2.307l2.847-.16v-1.25a1.873,1.873,0,0,0-.938-1.891,7.359,7.359,0,0,0-5.764-.417,5.087,5.087,0,0,1-1.146.449c-.1-.417-.312-1.891-.66-4.9a34.057,34.057,0,0,0-.694-4.166,1.557,1.557,0,0,1,.174-1.282,19.621,19.621,0,0,0,1.181-3.717l.764-3.044,1.007.128c1.181.16,9.306-1.154,9.549-1.57a1.963,1.963,0,0,0-.66-1.987c-.59-.224-8.195,1.025-9.237,1.506a2.015,2.015,0,0,1-1.91,0l-1.042-.385,1.6-.224a9.836,9.836,0,0,0,6.007-3.3,4.179,4.179,0,0,0,1.076-3.268,4.174,4.174,0,0,0-1.042-3.236C547.126-209.1,541.848-210.122,537.89-208.263Zm1.667,3.076c.07.385-.1.545-.59.545-.417,0-.729-.192-.729-.417C538.237-206.052,539.348-206.149,539.556-205.187Zm7.639.769c.174.545-.9.929-1.389.481a.551.551,0,0,1-.1-.7A.968.968,0,0,1,547.2-204.418Zm-9.792,3.973c1.7,1.73,5.764,2.467,7.778,1.41a4.362,4.362,0,0,1,1.736-.449h.868l-.972.769c-1.736,1.41-4.2,1.762-7.014.993-1.667-.481-3.993-2.211-3.993-2.98C535.806-201.342,536.674-201.214,537.4-200.445Zm-11.112,3.012c1.042.513.868.609-.451.288-.451-.128-.8-.32-.8-.481C525.042-198.01,525.146-197.978,526.292-197.433Zm5,1.442c3.924,1.154,4.063,1.154,4.341.288.139-.353.313-.577.417-.513a4.314,4.314,0,0,1-.556,1.6,6.8,6.8,0,0,0-.729,1.923c0,.961-.486.737-2.813-1.314a18,18,0,0,0-3.542-2.531C526.222-197.273,528.063-196.92,531.292-195.991Z" transform="translate(-384.296 212.209)" fill="#fff"/>
    <path id="Path_12" data-name="Path 12" d="M22.236-205.2c-.938,1.859-1.042,1.794,6.216,3.557,2.743.641,5.07,1.25,5.174,1.314.1.1-.1.288-.451.449-.833.449-.729,1.089.278,1.826l.868.609-1.667-.128a8.192,8.192,0,0,1-2.743-.8c-1.007-.545-1.146-.577-1.146-.1,0,.385-.139.449-.66.16-.9-.449-1.076-.417-1.076.16,0,.385-.139.417-.66.192-.556-.288-.66-.192-.868.641-.174.833-.278.929-.868.609-.972-.449-1.076-.417-1.076.513,0,.641-.139.769-.59.641-.556-.16-.625.064-.729,1.666-.313,5.255-.278,5.351.729,6.729,1.007,1.442,3.993,3.236,5.452,3.3.729.032.764.064.174.192-1.458.32-1.563.673-1.563,4.614,0,3.365.069,3.845.66,4.2.59.32.451.481-1.389,1.762-4.792,3.332-8.3,9.389-8.3,14.323,0,3.365,2.882,8.556,5.66,10.158a6.009,6.009,0,0,0,6.216-.673c4.479-3.2,8.716-9.965,8.125-12.945-.451-2.179-.694-2.275-5.66-2.243-5.625,0-8.125.737-7.57,2.115.174.352,1.111.545,3.75.7a37.361,37.361,0,0,1,5.521.737l2.014.513-1.493,2.563c-1.84,3.236-4.757,6.088-6.771,6.633a3.683,3.683,0,0,1-2.743-.032,7.767,7.767,0,0,1-3.959-4.55,14.744,14.744,0,0,1,.556-7.274c.9-2.4,3.854-5.672,7.188-8.011,3.959-2.724,3.959-2.724,3.4-3.365-.347-.352-.486-1.7-.486-4.518-.035-3.044-.139-4.07-.521-4.262-.347-.192.1-.417,1.458-.673,2.188-.417,4.861-1.891,5.66-3.2.521-.8.625-.833,1.146-.352.66.609,7.743,2.435,8.438,2.179.694-.224,1.528-2.724,1.076-3.14a42.228,42.228,0,0,0-7.952-2.211,1.519,1.519,0,0,0-1.146.7l-.382.737.208-.737c.313-1.122-.521-3.813-1.493-4.871l-.868-.961,1.528.641c1.389.577,1.528.577,2.153.064a7.617,7.617,0,0,0,1.215-1.41l.59-.833,4.132,2.4a57.911,57.911,0,0,0,5.278,2.852c1.076.417,1.146.417,2.153-.577.8-.769.938-1.154.694-1.57-.278-.513-8.125-5.287-10.8-6.569a7.942,7.942,0,0,0-2.778-.609,5.624,5.624,0,0,1-2.952-.865c-1.458-.929-12.6-3.781-14.723-3.781C22.861-206,22.549-205.84,22.236-205.2ZM34.494-194.3c0,.8-1.389,1.057-1.7.32-.313-.769.069-1.186.938-1.057C34.216-194.977,34.494-194.721,34.494-194.3Zm-7.987,3.2c0,.8-1.389,1.057-1.7.32-.313-.769.069-1.186.938-1.057C26.23-191.773,26.507-191.516,26.507-191.1Zm10.938,2.467a6.307,6.307,0,0,1-3.993,3.461,7.751,7.751,0,0,1-5.278-.481c-1.042-.641-.59-1.057.556-.513a7.693,7.693,0,0,0,5.243-.288,5.678,5.678,0,0,0,2.952-3.172C37.341-190.844,37.827-189.914,37.446-188.633Z" transform="translate(-18 210.042)" fill="#fff"/>
    <path id="Path_13" data-name="Path 13" d="M162.687-200.263c-.59.609-.695,1.346-.833,6.665l-.174,5.96-3.333-4.646a50.518,50.518,0,0,0-3.889-5.063c-1.32-1.025-3.264.449-4.063,3.108-.486,1.666-.417,5.223.174,8.331.521,2.852.938,3.557,1.945,3.557.972,0,1.32-.929,1.007-2.563-.66-3.044-.313-9.741.451-8.972.069.1,1.6,2.307,3.368,4.967a59.062,59.062,0,0,0,3.889,5.351c.9.737,2.257.737,2.674,0,.451-.769,1.042-5.96,1.319-11.343.174-3.781.139-4.486-.382-5.191C164.145-201.128,163.555-201.16,162.687-200.263Z" transform="translate(-112.637 206.58)" fill="#fff"/>
    <path id="Path_14" data-name="Path 14" d="M201.472-200.71c-2.431.352-3.472.9-3.472,1.891,0,.32.486.449,1.84.449h1.806v1.666c0,.929.174,3.909.313,6.569l.313,4.9h-1.25c-1.632,0-2.4,1.057-1.424,1.923.9.8,5.556,1.025,6.042.32.66-.993.382-1.955-.66-2.275-1.215-.385-1.285-.833-1.632-7.69-.243-5.127-.1-5.736,1.6-6.537s1.354-1.442-.764-1.41A23.9,23.9,0,0,0,201.472-200.71Z" transform="translate(-146.571 206.579)" fill="#fff"/>
    <path id="Path_15" data-name="Path 15" d="M228.428-200.056c-1.771,1.186-3.195,3.172-3.195,4.454,0,1.7.8,2.692,3.368,4.069a10.253,10.253,0,0,1,2.674,1.891,6.391,6.391,0,0,1,.139,3.621c-.312.737-2.813.673-5.07-.128a17.414,17.414,0,0,0-2.083-.641c-.556,0-.243,2.179.417,2.948.972,1.154,2.5,1.634,4.653,1.474,3.334-.256,5.417-2.435,5.417-5.608,0-2.275-.9-3.525-3.854-5.383-2.778-1.762-3.195-2.467-2.118-3.685.556-.641,1.076-.8,2.986-.9,2.222-.128,2.292-.16,2.292-1.025,0-1.186-.729-1.666-2.708-1.826A3.5,3.5,0,0,0,228.428-200.056Z" transform="translate(-165.298 206.533)" fill="#fff"/>
    <path id="Path_16" data-name="Path 16" d="M272-200.579a2.223,2.223,0,0,0,0,1.282c.347,1.506-.174,7.4-.66,7.146a18.345,18.345,0,0,0-3.75-.16l-3.4.1v-3.845a14.109,14.109,0,0,0-.313-4.005,1.147,1.147,0,0,0-.868,0c-.451.16-.556.737-.556,3.172,0,4.037-.208,4.839-1.389,5.287a2.781,2.781,0,0,0-1.354,1.186c-.556,1.154,0,1.7,1.563,1.474l1.215-.192-.243,1.955c-.313,2.724.069,4.871.868,4.871.486,0,.694-.352.868-1.7.1-.9.208-2.4.208-3.333v-1.666l1.667.064a32.158,32.158,0,0,0,3.75-.192l2.118-.288-.174,1.6c-.208,1.987.451,3.973,1.25,3.845.833-.16.972-2.051.764-10.03-.139-5.928-.243-6.729-.764-6.825A.841.841,0,0,0,272-200.579Z" transform="translate(-190.958 206.543)" fill="#fff"/>
    <path id="Path_17" data-name="Path 17" d="M308.1-200.653a3.69,3.69,0,0,0-2.327.961c-1.007,1.122-.833,1.314,1.215,1.314h1.84v1.346c0,.769.1,3.717.278,6.569l.278,5.223h-1.25c-1.667,0-2.327.961-1.285,1.923.521.481,1.146.641,2.57.641a12.322,12.322,0,0,1,2.431.192c.313.128.695-.128,1.007-.737.625-1.089.278-1.859-.938-2.147-.972-.224-1.042-.769-1.424-8.107-.208-4.326,0-5.095,1.6-5.928.556-.288,1.007-.769,1.007-1.057C313.1-200.973,311.366-201.069,308.1-200.653Z" transform="translate(-223.122 206.585)" fill="#fff"/>
    <path id="Path_18" data-name="Path 18" d="M332.786-200.568c-.347.545-.59,11.728-.312,14.964l.278,3.2,1.979.1c1.91.1,2.083.032,5.035-1.794a36.431,36.431,0,0,0,3.82-2.66c1.215-1.218,1.91-3.108,2.083-5.736a6.21,6.21,0,0,0-.521-3.941,3.8,3.8,0,0,0-2.57-2.307,29.177,29.177,0,0,0-5.139-1.282c-1.806-.288-3.542-.577-3.889-.673A.735.735,0,0,0,332.786-200.568Zm5.591,3.781c3.646,1.089,4.306,1.442,4.653,2.275s-.243,4.326-.938,5.608c-1.042,1.891-6.181,5.031-7.014,4.294a104.029,104.029,0,0,1,.139-12.721C335.459-197.716,335.321-197.748,338.376-196.787Z" transform="translate(-243.062 206.468)" fill="#fff"/>
    <path id="Path_19" data-name="Path 19" d="M383.131-200.483c-1.007.673-1.875,2.948-3.021,7.722-.625,2.467-1.32,5.191-1.6,6.056-.694,2.083-.694,4.358-.035,4.358.694,0,2.188-1.73,2.465-2.852.382-1.7,1.458-2.275,4.306-2.307a7.292,7.292,0,0,1,2.917.32,6.456,6.456,0,0,1,.521,2.6c.139,2.083.208,2.243.938,2.243,1.25,0,1.285-1.057.347-6.12-1.042-5.511-2.708-10.51-3.82-11.664A2.3,2.3,0,0,0,383.131-200.483Zm2.708,3.557c.278.641.729,1.891,1.007,2.82.451,1.57.417,1.7-.243,2.211a3.878,3.878,0,0,1-2.431.577c-1.7,0-1.7,0-1.528-.9.1-.481.347-1.794.521-2.884C383.686-198.208,384.867-199.009,385.839-196.926Z" transform="translate(-275.648 206.576)" fill="#fff"/>
    <path id="Path_20" data-name="Path 20" d="M453.035-200.591a11.538,11.538,0,0,0-3.507,3.2,3.614,3.614,0,0,0,.208,3.877,11.216,11.216,0,0,0,2.535,1.794,12.905,12.905,0,0,1,2.465,1.6,4.018,4.018,0,0,1,.556,3.877c-.382.673-.59.7-2.4.545a10.878,10.878,0,0,1-3.438-.833L448-187.2v1.442c0,2.243,1.6,3.365,4.722,3.365,3.993,0,6.736-3.429,5.695-7.082-.486-1.7-1.25-2.5-3.82-4.037-2.188-1.346-2.431-1.6-2.431-2.563,0-1.154,1.563-2.019,3.681-2.019,1.563,0,1.875-.1,2.083-.7C458.452-200.367,455.049-201.617,453.035-200.591Z" transform="translate(-325.487 206.62)" fill="#fff"/>
    <path id="Path_21" data-name="Path 21" d="M84.13-109.195c-.729.8-.59,7.146.174,9.581,1.007,3.14,2.257,5,3.854,5.64,3.09,1.314,5.035.577,6.771-2.531l1.007-1.826.035,1.474a20.579,20.579,0,0,1-2.292,7.947,10.769,10.769,0,0,1-4.549,4.39,8.151,8.151,0,0,1-5.313-.032,10.172,10.172,0,0,0-2.188-.481c-.59,0-.66.16-.486,1.314a3.662,3.662,0,0,0,.694,1.794c1.181,1.122,7.049,1.442,9.167.513,3.368-1.474,7.118-9.068,8.091-16.342.208-1.538.556-4.005.764-5.415.625-4.294-.174-5.319-2.639-3.333-.833.673-1.7,2.083-2.952,4.71a28.39,28.39,0,0,1-2.535,4.486,2.436,2.436,0,0,1-3.646-.128c-.59-.833-.694-1.891-.8-10.062a1.988,1.988,0,0,0-1.771-2.019A1.347,1.347,0,0,0,84.13-109.195Z" transform="translate(-59.163 144.511)" fill="#fff"/>
    <path id="Path_22" data-name="Path 22" d="M259.24-109.442c-1.458,1.538-1.493,1.891-1.424,10.414.069,5.255-.035,8.267-.243,8.267-.347,0-1.875-2.115-5.9-8.235-2.361-3.557-5.035-6.5-5.973-6.5-.9,0-2.361,1.282-3.195,2.82-1.84,3.429-2.118,7.658-.938,14.163.382,2.211.729,4.1.729,4.2,0,.513,1.528,1.57,2.292,1.57,1.354,0,1.7-1.122,1.25-3.813a62.851,62.851,0,0,1-.208-12.176c.139-.577.417-.961.625-.9a83.314,83.314,0,0,1,5.1,7.21c5.209,7.883,5.486,8.2,6.91,8.684a1.69,1.69,0,0,0,1.875-.32c1.25-.9,1.632-3.685,2.639-18.489.278-4.358.278-5.031-.243-5.768C261.393-110.051,260.177-110.436,259.24-109.442Z" transform="translate(-178.203 144.79)" fill="#fff"/>
    <path id="Path_23" data-name="Path 23" d="M318.118-108.943c-1.389,1.282-2.431,4.134-3.993,10.959-.59,2.628-1.528,6.409-2.118,8.363A26.446,26.446,0,0,0,311-84.43c0,1.474.069,1.666.729,1.666,1.111,0,2.6-1.7,3.611-4.2,1.25-2.98,1.771-3.3,6.285-3.429l3.542-.128.625.865c.451.641.66,1.7.764,3.877.139,2.6.243,2.98.833,3.108.9.224,2.014-.833,2.014-1.955a151.523,151.523,0,0,0-3.334-16.887c-1.945-6.248-3.438-8.491-5.625-8.491A3.161,3.161,0,0,0,318.118-108.943Zm3.785,3.813c.729,1.025,2.361,6.473,2.222,7.338-.208,1.282-1.667,1.955-4.41,1.987-1.354.032-2.465.032-2.465,0a6.538,6.538,0,0,1,.347-.865,25.25,25.25,0,0,0,.694-3.621c.486-3.461.9-4.806,1.667-5.223C320.862-105.995,321.348-105.9,321.9-105.129Z" transform="translate(-228.256 144.803)" fill="#fff"/>
    <path id="Path_24" data-name="Path 24" d="M373.239-109.362a15.361,15.361,0,0,0-5.035,5.031,5.253,5.253,0,0,0,1.25,6.024A41.522,41.522,0,0,0,373-96.064c3.195,1.826,4.1,2.98,4.1,5.351,0,2.051-.486,3.076-1.563,3.333-1.215.288-4.722-.385-7.049-1.346a15.445,15.445,0,0,0-2.188-.769c-.556,0-.347,3.236.278,4.2.938,1.442,3.611,2.531,6.25,2.531A8.23,8.23,0,0,0,380.5-86.9c.8-1.25.938-1.826.9-3.877-.035-4.1-1.25-5.7-6.459-8.748-2.639-1.538-3.16-2.275-2.674-3.877s2.327-2.4,5.591-2.435c2.222,0,2.361-.032,2.57-.833C381.156-109.3,376.607-111,373.239-109.362Z" transform="translate(-267.361 144.806)" fill="#fff"/>
    <path id="Path_25" data-name="Path 25" d="M422.4-109.455a2.126,2.126,0,0,0-1.181,2.467c.174.545,0,.577-2.639.513-2.4-.1-2.917,0-3.229.449s-.243.737.347,1.442c.625.8.938.9,2.813.9a7.243,7.243,0,0,1,2.361.256,87.723,87.723,0,0,1,.313,10.19c0,10.638,0,10.542,1.736,10.542,1.667,0,1.667,0,1.7-10,.035-5.159.208-9.581.347-9.805.208-.32.938-.385,3.021-.192,2.639.192,2.743.192,3.021-.545a2.685,2.685,0,0,0,.069-1.57c-.208-.769-.347-.8-2.952-.9-3.056-.1-3.646-.385-3.646-1.7,0-.929-.66-2.563-1.007-2.5C423.377-109.872,422.891-109.68,422.4-109.455Z" transform="translate(-302.692 144.739)" fill="#fff"/>
    <path id="Path_26" data-name="Path 26" d="M469.2-109.629c-2.674.256-3.854.865-4.375,2.211-.347.929-.347.993.833,1.186a12.535,12.535,0,0,0,2.708.064l1.458-.16v2.435c0,1.346.139,5.7.313,9.709l.278,7.274-1.7.1c-1.424.1-1.771.224-2.222.961-.486.833-.486.929.417,1.762.868.8,1.215.865,3.646.929a25.05,25.05,0,0,1,3.611.256c.764.224.938.1,1.493-1.025a3.443,3.443,0,0,0,.417-1.891,3.1,3.1,0,0,0-2.431-1.378c-.694,0-.833-1.218-1.285-9.965-.417-9-.382-9.293,2.118-10.574,1.007-.513,1.389-.929,1.389-1.474,0-.7-.1-.737-2.153-.7C472.5-109.885,470.482-109.757,469.2-109.629Z" transform="translate(-337.49 144.752)" fill="#fff"/>
    <path id="Path_27" data-name="Path 27" d="M509.24-109.044c-6.077,2.788-8.646,11.632-5.625,19.162A12.607,12.607,0,0,0,512.4-82.96c2.222.449,6.6.481,7.5.032a2.161,2.161,0,0,0,.938-1.218c.347-1.218-.59-1.794-4.236-2.628-6.042-1.41-9.1-2.98-10.244-5.287-.833-1.73-.9-7.306-.1-9.773.451-1.474.695-1.762,1.979-2.307a9.285,9.285,0,0,1,2.847-.609,14.11,14.11,0,0,0,2.639-.288c1.181-.256,2.708-.128,5.452.449,1.528.32,1.493-.417-.174-2.115C515.977-109.781,512.608-110.614,509.24-109.044Z" transform="translate(-370.161 144.68)" fill="#fff"/>
    <path id="Path_28" data-name="Path 28" d="M150.229-108.288c-2.57.865-6.667,9.325-8.438,17.5-.972,4.39-.938,5.7.174,7.05,1.632,1.955,2.153,1.282,2.882-3.813.972-6.6,2.6-10.895,4.827-12.881l1.042-.9.521.9c.8,1.506,1.563,3.845,2.708,8.62a22.983,22.983,0,0,0,1.632,5.095c.451.449.938.545,2.188.449,2.327-.224,3.542-1.186,5.417-4.358,1.771-3.012,3.507-4.967,5-5.672,1.215-.609,1.181-.673,1.875,5.031C170.82-84.7,171.2-82.4,171.827-80.7c.8,2.243,2.5,3.14,3.75,1.987.729-.673.694-1.666-.139-3.877a57.93,57.93,0,0,1-2.257-11.792c-.278-2.467-.694-5.351-.9-6.377-.451-2.435-2.188-6.024-3.16-6.569-.66-.385-.833-.352-1.32.224a26.487,26.487,0,0,0-2.049,4.614c-.833,2.147-2.014,4.935-2.674,6.184-1.076,2.115-3.681,5.287-4.306,5.287-.521,0-2.292-4.774-3.854-10.158C153.041-107.871,152.277-108.993,150.229-108.288Z" transform="translate(-107.084 143.764)" fill="#fff"/>
  </g>
</svg>
