<svg id="Card-Portfolio-Project-Nishida_s-Gym" data-name="Card-Portfolio-Project-Nishida&apos;s-Gym" xmlns="http://www.w3.org/2000/svg" width="491" height="488" viewBox="0 0 491 488">
  <rect id="Rectangle_25" data-name="Rectangle 25" width="491" height="488" rx="28" fill="#333"/>
  <g id="desktop-ps-nishidas-bg">
    <g id="Group_12" data-name="Group 12" transform="translate(-634 -278.418)" style="mix-blend-mode: normal;isolation: isolate">
      <path id="Path_9" data-name="Path 9" d="M594.745-215.31c-3.806,3.44-3.953,3.733-2.781,4.9,1.1,1.1,1.757,1.171,4.611.512,3-.659,4.245-.512,11.492,1.757a78.707,78.707,0,0,0,8.784,2.269c.732-.293-15.371-12.37-16.909-12.736C599.283-218.75,596.941-217.286,594.745-215.31Z" transform="translate(484.335 656.614)" fill="#fff"/>
      <path id="Path_10" data-name="Path 10" d="M424.244-211.682A4.222,4.222,0,0,0,423-209.194c0,1.244,1.9,3.074,3.806,3.733,1.684.586,1.025,2.05-1.61,4.1-2.415,1.757-2.269,3.733.366,3.733,2.123,0,5.27-3,6.661-6.295C434.2-208.608,432-213,427.758-213A5.267,5.267,0,0,0,424.244-211.682Z" transform="translate(529.449 655.109)" fill="#fff"/>
      <path id="Path_11" data-name="Path 11" d="M553.279-207.074c-5.709,2.928-8.271,6.441-8.637,11.931-.293,3.66,0,4.831,1.537,7.466a16.009,16.009,0,0,0,4.1,4.611c1.83,1.244,2.049,1.537,1.025,1.9a2.365,2.365,0,0,1-2.2-.512c-.952-.878-9.223-3.66-16.543-5.49-3.294-.805-3.513-.732-5.417,1.1a8.2,8.2,0,0,1-2.489,1.9c-.366,0-.659.659-.659,1.391,0,.878,3.66,4.831,9.589,10.321,5.343,4.9,10.394,9.808,11.346,10.906,1.171,1.464,2.928,2.269,5.929,2.928,5.2,1.171,5.636,1.391,4.611,2.635-.512.659-.439,3.587.366,10.321,1.537,13.029,1.684,13.4,3.66,13.908l1.757.439-2.489,3.367c-4.538,5.856-5.051,11.2-1.61,16.323.878,1.318,4.392,4.1,7.832,6.222,7.905,4.831,9.516,7.1,9.516,13.029,0,5.417-1.318,7.759-4.392,7.759-3.367,0-9.589-1.537-13.834-3.367-2.123-.952-4.245-1.537-4.611-1.318-1.391.878-.073,8.344,1.757,10.394,4.1,4.392,13.029,6,19.471,3.44C576.7-77,582.265-83,583.29-86.665a25.8,25.8,0,0,0-.366-13.1c-1.318-4.319-4.538-7.613-12.59-12.883-5.636-3.587-6.88-5.636-5.636-9.15,1.244-3.367,4.172-4.831,10.76-5.27l6-.366v-2.855c0-2.269-.439-3.147-1.976-4.319-2.708-2.05-9.15-2.489-12.151-.952a10.221,10.221,0,0,1-2.416,1.025c-.22-.952-.659-4.319-1.391-11.2a83.733,83.733,0,0,0-1.464-9.516,3.816,3.816,0,0,1,.366-2.928c.512-.805,1.61-4.611,2.489-8.491l1.61-6.954,2.123.293c2.489.366,19.617-2.635,20.129-3.587.586-.952-.366-4.172-1.391-4.538-1.244-.512-17.275,2.342-19.471,3.44a3.959,3.959,0,0,1-4.026,0l-2.2-.878,3.367-.512c4.831-.732,10.1-3.879,12.663-7.539,1.9-2.635,2.269-3.879,2.269-7.466s-.366-4.831-2.2-7.393C572.749-208.978,561.623-211.32,553.279-207.074Zm3.513,7.027c.146.878-.22,1.244-1.244,1.244-.878,0-1.537-.439-1.537-.952C554.011-202.024,556.353-202.243,556.792-200.047Zm16.1,1.757c.366,1.244-1.9,2.123-2.928,1.1a1.335,1.335,0,0,1-.22-1.61C570.407-199.828,572.457-199.462,572.9-198.291Zm-20.642,9.076c3.587,3.953,12.151,5.636,16.4,3.221a8.636,8.636,0,0,1,3.66-1.025h1.83l-2.049,1.757c-3.66,3.221-8.857,4.026-14.786,2.269-3.513-1.1-8.418-5.051-8.418-6.807C548.887-191.264,550.717-190.971,552.254-189.214Zm-23.423,6.881c2.2,1.171,1.83,1.391-.952.659-.952-.293-1.684-.732-1.684-1.1C526.2-183.651,526.416-183.578,528.831-182.334Zm10.54,3.294c8.271,2.635,8.564,2.635,9.15.659.293-.805.659-1.318.878-1.171.146.22-.366,1.83-1.171,3.66a16.39,16.39,0,0,0-1.537,4.392c0,2.2-1.025,1.684-5.929-3-2.855-2.708-6.222-5.27-7.466-5.783C528.685-181.968,532.564-181.163,539.371-179.04Z" transform="translate(502.378 654.088)" fill="#fff"/>
      <path id="Path_12" data-name="Path 12" d="M26.93-204.17c-1.976,4.245-2.2,4.1,13.1,8.125,5.783,1.464,10.687,2.855,10.906,3,.22.22-.22.659-.952,1.025-1.757,1.025-1.537,2.489.586,4.172l1.83,1.391-3.513-.293a16.29,16.29,0,0,1-5.783-1.83c-2.123-1.244-2.416-1.318-2.416-.22,0,.878-.293,1.025-1.391.366-1.9-1.025-2.269-.952-2.269.366,0,.878-.293.952-1.391.439-1.171-.659-1.391-.439-1.83,1.464-.366,1.9-.586,2.123-1.83,1.391-2.05-1.025-2.269-.952-2.269,1.171,0,1.464-.293,1.757-1.244,1.464-1.171-.366-1.318.146-1.537,3.806-.659,12-.586,12.224,1.537,15.371,2.123,3.294,8.418,7.393,11.492,7.539,1.537.073,1.61.146.366.439-3.074.732-3.294,1.537-3.294,10.54,0,7.686.146,8.784,1.391,9.589,1.244.732.952,1.1-2.928,4.026C25.393-123.214,18-109.38,18-98.107c0,7.686,6.075,19.544,11.931,23.2,3.587,2.269,9,1.61,13.1-1.537,9.442-7.32,18.373-22.764,17.128-29.572-.952-4.977-1.464-5.2-11.931-5.124-11.858,0-17.128,1.684-15.957,4.831.366.805,2.342,1.244,7.905,1.61a73.04,73.04,0,0,1,11.638,1.684l4.245,1.171-3.147,5.856c-3.879,7.393-10.028,13.907-14.273,15.152a7.21,7.21,0,0,1-5.783-.073c-3.294-1.318-7.173-6.075-8.344-10.394-1.025-3.733-.439-12.078,1.171-16.616,1.9-5.49,8.125-12.956,15.152-18.3,8.344-6.222,8.344-6.222,7.173-7.686-.732-.805-1.025-3.879-1.025-10.321-.073-6.954-.293-9.3-1.1-9.735-.732-.439.22-.952,3.074-1.537,4.611-.952,10.248-4.319,11.931-7.32,1.1-1.83,1.318-1.9,2.416-.805,1.391,1.391,16.323,5.563,17.787,4.977,1.464-.512,3.221-6.222,2.269-7.173-.878-.878-14.566-5.051-16.762-5.051a3.177,3.177,0,0,0-2.416,1.61l-.805,1.684.439-1.684c.659-2.562-1.1-8.71-3.147-11.126l-1.83-2.2,3.221,1.464c2.928,1.318,3.221,1.318,4.538.146a17.083,17.083,0,0,0,2.562-3.221l1.244-1.9,8.71,5.49a119.266,119.266,0,0,0,11.126,6.515c2.269.952,2.416.952,4.538-1.318,1.684-1.757,1.976-2.635,1.464-3.587C95.662-180.161,79.12-191.068,73.484-194a15.66,15.66,0,0,0-5.856-1.391,11.2,11.2,0,0,1-6.222-1.976C58.332-199.485,34.835-206,30.37-206,28.248-206,27.589-205.634,26.93-204.17Zm25.839,24.887c0,1.83-2.928,2.416-3.587.732-.659-1.757.146-2.708,1.976-2.415A1.636,1.636,0,0,1,52.769-179.283Zm-16.835,7.32c0,1.83-2.928,2.416-3.587.732-.659-1.757.146-2.708,1.976-2.415A1.636,1.636,0,0,1,35.933-171.963Zm23.057,5.636c-.878,3.147-4.611,6.661-8.418,7.905-3.367,1.1-8.491.586-11.126-1.1-2.2-1.464-1.244-2.416,1.171-1.171,2.342,1.244,7.905.952,11.053-.659a12.627,12.627,0,0,0,6.222-7.247C58.771-171.378,59.8-169.255,58.99-166.327Z" transform="translate(638 653.233)" fill="#fff"/>
      <path id="Path_13" data-name="Path 13" d="M176.663-199.438c-1.244,1.391-1.464,3.074-1.757,15.225l-.366,13.615-7.027-10.614c-3.806-5.856-7.539-11.053-8.2-11.565-2.781-2.342-6.881,1.025-8.564,7.1-1.025,3.806-.878,11.931.366,19.031,1.1,6.515,1.976,8.125,4.1,8.125,2.05,0,2.781-2.123,2.123-5.856-1.391-6.954-.659-22.252.952-20.5.146.22,3.367,5.27,7.1,11.346,3.733,6,7.466,11.565,8.2,12.224,1.9,1.684,4.758,1.684,5.636,0,.952-1.757,2.2-13.615,2.781-25.912.366-8.637.293-10.248-.805-11.858C179.738-201.414,178.493-201.487,176.663-199.438Z" transform="translate(602.601 651.868)" fill="#fff"/>
      <path id="Path_14" data-name="Path 14" d="M205.32-200.462c-5.124.805-7.32,2.05-7.32,4.319,0,.732,1.025,1.025,3.879,1.025h3.806v3.806c0,2.123.366,8.93.659,15.005l.659,11.2h-2.635c-3.44,0-5.051,2.415-3,4.392,1.9,1.83,11.712,2.342,12.736.732,1.391-2.269.805-4.465-1.391-5.2-2.562-.878-2.708-1.9-3.44-17.567-.512-11.712-.22-13.1,3.367-14.932s2.855-3.294-1.61-3.221A46.572,46.572,0,0,0,205.32-200.462Z" transform="translate(589.755 651.867)" fill="#fff"/>
      <path id="Path_15" data-name="Path 15" d="M233.362-199.053c-3.733,2.708-6.734,7.247-6.734,10.174,0,3.879,1.684,6.149,7.1,9.3,2.708,1.61,5.27,3.587,5.636,4.319.805,1.464.952,6.515.293,8.271-.659,1.684-5.929,1.537-10.687-.293a34.61,34.61,0,0,0-4.392-1.464c-1.171,0-.512,4.977.878,6.734,2.05,2.635,5.27,3.733,9.808,3.367,7.027-.586,11.419-5.563,11.419-12.81,0-5.2-1.9-8.052-8.125-12.3-5.856-4.026-6.734-5.636-4.465-8.418,1.171-1.464,2.269-1.83,6.295-2.05,4.685-.293,4.831-.366,4.831-2.342,0-2.708-1.537-3.806-5.709-4.172C236.656-201.029,235.631-200.736,233.362-199.053Z" transform="translate(582.793 651.849)" fill="#fff"/>
      <path id="Path_16" data-name="Path 16" d="M285.85-200.228a5.485,5.485,0,0,0,0,2.928c.732,3.44-.366,16.909-1.391,16.323-.439-.293-4.026-.439-7.905-.366l-7.173.22v-8.784c0-4.831-.293-8.93-.659-9.15a2.246,2.246,0,0,0-1.83,0c-.951.366-1.171,1.684-1.171,7.247,0,9.223-.439,11.053-2.928,12.078a6.041,6.041,0,0,0-2.855,2.708c-1.171,2.635,0,3.879,3.294,3.367l2.562-.439-.512,4.465c-.659,6.222.146,11.126,1.83,11.126,1.025,0,1.464-.805,1.83-3.879.22-2.05.439-5.49.439-7.613V-173.8l3.513.146a62.618,62.618,0,0,0,7.905-.439l4.465-.659-.366,3.66c-.439,4.538.952,9.076,2.635,8.784,1.757-.366,2.049-4.685,1.61-22.911-.293-13.542-.512-15.371-1.61-15.591A1.694,1.694,0,0,0,285.85-200.228Z" transform="translate(573.273 651.853)" fill="#fff"/>
      <path id="Path_17" data-name="Path 17" d="M311.342-200.318c-2.416.366-4.026,1.1-4.9,2.2-2.123,2.562-1.757,3,2.562,3h3.879v3.074c0,1.757.22,8.491.586,15.005l.586,11.931h-2.635c-3.513,0-4.9,2.2-2.708,4.392,1.1,1.1,2.416,1.464,5.417,1.464a24.029,24.029,0,0,1,5.124.439c.659.293,1.464-.293,2.123-1.684,1.318-2.489.586-4.245-1.976-4.9-2.05-.512-2.2-1.757-3-18.519-.439-9.882,0-11.638,3.367-13.541,1.171-.659,2.123-1.757,2.123-2.416C321.883-201.05,318.223-201.27,311.342-200.318Z" transform="translate(561.029 651.87)" fill="#fff"/>
      <path id="Path_18" data-name="Path 18" d="M333.266-200.345c-.732,1.244-1.244,26.79-.659,34.183l.586,7.32,4.172.22c4.026.22,4.392.073,10.614-4.1a77.119,77.119,0,0,0,8.052-6.075c2.562-2.781,4.026-7.1,4.392-13.1.366-4.611.146-6.149-1.1-9-1.318-3-2.123-3.733-5.417-5.27a57.664,57.664,0,0,0-10.833-2.928c-3.806-.659-7.466-1.318-8.2-1.537A1.461,1.461,0,0,0,333.266-200.345Zm11.785,8.637c7.686,2.489,9.076,3.294,9.808,5.2s-.512,9.882-1.976,12.81c-2.2,4.319-13.029,11.492-14.786,9.808-.512-.512-.293-28.181.293-29.059C338.9-193.83,338.609-193.9,345.05-191.708Z" transform="translate(553.745 651.823)" fill="#fff"/>
      <path id="Path_19" data-name="Path 19" d="M388.83-199.948c-2.123,1.537-3.953,6.734-6.368,17.641-1.318,5.636-2.781,11.858-3.367,13.834-1.464,4.758-1.464,9.955-.073,9.955,1.464,0,4.611-3.953,5.2-6.515.805-3.879,3.074-5.2,9.077-5.27,3.074-.073,5.709.293,6.149.732s.952,3.147,1.1,5.929c.293,4.758.439,5.124,1.976,5.124,2.635,0,2.708-2.416.732-13.981-2.2-12.59-5.709-24.009-8.052-26.644C393.295-201.12,390.806-201.486,388.83-199.948Zm5.709,8.125c.586,1.464,1.537,4.319,2.123,6.441.952,3.587.878,3.879-.512,5.051-.952.878-2.708,1.318-5.124,1.318-3.587,0-3.587,0-3.221-2.05.22-1.1.732-4.1,1.1-6.588C390-194.751,392.49-196.581,394.539-191.824Z" transform="translate(541.514 651.866)" fill="#fff"/>
      <path id="Path_20" data-name="Path 20" d="M458.614-200.112a25.178,25.178,0,0,0-7.393,7.32c-1.464,2.855-1.244,6.661.439,8.857a23.79,23.79,0,0,0,5.343,4.1,27.12,27.12,0,0,1,5.2,3.66c1.684,1.83,2.342,6.734,1.171,8.857-.805,1.537-1.244,1.61-5.051,1.244a21.5,21.5,0,0,1-7.246-1.9L448-169.516v3.294c0,5.124,3.367,7.686,9.955,7.686,8.418,0,14.2-7.832,12-16.177-1.025-3.879-2.635-5.709-8.052-9.223-4.611-3.074-5.124-3.66-5.124-5.856,0-2.635,3.294-4.611,7.759-4.611,3.294,0,3.953-.22,4.392-1.61C470.032-199.6,462.859-202.454,458.614-200.112Z" transform="translate(522.748 651.883)" fill="#fff"/>
      <path id="Path_21" data-name="Path 21" d="M87.531-108.713c-1.537,1.83-1.244,16.323.366,21.886,2.123,7.173,4.758,11.419,8.125,12.883,6.515,3,10.614,1.318,14.273-5.783l2.123-4.172.073,3.367c0,4.465-2.416,13.834-4.831,18.153-2.342,4.465-6.515,8.784-9.589,10.028a15.931,15.931,0,0,1-11.2-.073,20.024,20.024,0,0,0-4.611-1.1c-1.244,0-1.391.366-1.025,3a8.768,8.768,0,0,0,1.464,4.1c2.489,2.562,14.859,3.294,19.324,1.171,7.1-3.367,15.005-20.715,17.055-37.331.439-3.513,1.171-9.15,1.61-12.37,1.318-9.808-.366-12.151-5.563-7.613-1.757,1.537-3.587,4.758-6.222,10.76-2.123,4.758-4.538,9.369-5.343,10.248a4.88,4.88,0,0,1-7.686-.293c-1.244-1.9-1.464-4.319-1.684-22.984a4.441,4.441,0,0,0-3.733-4.611A2.691,2.691,0,0,0,87.531-108.713Z" transform="translate(621.098 627.387)" fill="#fff"/>
      <path id="Path_22" data-name="Path 22" d="M279.609-108.751c-3.074,3.513-3.147,4.319-3,23.789.146,12-.073,18.885-.512,18.885-.732,0-3.953-4.831-12.444-18.812-4.977-8.125-10.614-14.859-12.59-14.859-1.9,0-4.977,2.928-6.734,6.441-3.879,7.832-4.465,17.494-1.976,32.353.805,5.051,1.537,9.369,1.537,9.589,0,1.171,3.221,3.587,4.831,3.587,2.855,0,3.587-2.562,2.635-8.71-.952-5.417-1.171-23.936-.439-27.815.293-1.318.878-2.2,1.318-2.05s5.27,7.539,10.76,16.469c10.98,18.007,11.565,18.739,14.566,19.836a3.359,3.359,0,0,0,3.953-.732c2.635-2.05,3.44-8.418,5.563-42.235.586-9.955.586-11.492-.512-13.176C284.148-110.141,281.586-111.02,279.609-108.751Z" transform="translate(578.269 627.497)" fill="#fff"/>
      <path id="Path_23" data-name="Path 23" d="M326.005-107.584c-2.928,2.928-5.124,9.442-8.418,25.033-1.244,6-3.221,14.639-4.465,19.1A64.945,64.945,0,0,0,311-51.589c0,3.367.146,3.806,1.537,3.806,2.342,0,5.49-3.879,7.613-9.589,2.635-6.807,3.733-7.539,13.249-7.832l7.466-.293,1.318,1.976c.952,1.464,1.391,3.879,1.61,8.857.293,5.929.512,6.807,1.757,7.1,1.9.512,4.245-1.9,4.245-4.465,0-3.806-5.124-31.987-7.027-38.575-4.1-14.273-7.246-19.4-11.858-19.4C329.08-110,327.762-109.341,326.005-107.584Zm7.979,8.71c1.537,2.342,4.977,14.786,4.685,16.762-.439,2.928-3.514,4.465-9.3,4.538a51.105,51.105,0,0,1-5.2,0,15.7,15.7,0,0,1,.732-1.976,61.959,61.959,0,0,0,1.464-8.271c1.025-7.905,1.9-10.98,3.514-11.931C331.788-100.85,332.813-100.631,333.984-98.874Z" transform="translate(559.468 627.502)" fill="#fff"/>
      <path id="Path_24" data-name="Path 24" d="M381.291-108.537c-3.221,1.684-9.3,8.271-10.614,11.492-1.976,4.611-.805,10.687,2.635,13.761a87,87,0,0,0,7.466,5.124c6.734,4.172,8.637,6.807,8.637,12.224,0,4.685-1.025,7.027-3.294,7.613-2.562.659-9.955-.878-14.859-3.074a30.88,30.88,0,0,0-4.611-1.757c-1.171,0-.732,7.393.586,9.589,1.976,3.294,7.612,5.783,13.175,5.783,7.393,0,12.3-2.855,16.177-9.442,1.684-2.855,1.976-4.172,1.9-8.857-.073-9.369-2.635-13.029-13.615-19.983-5.563-3.513-6.661-5.2-5.636-8.857s4.9-5.49,11.785-5.563c4.685,0,4.977-.073,5.417-1.9C397.98-108.391,388.391-112.27,381.291-108.537Z" transform="translate(544.734 627.503)" fill="#fff"/>
      <path id="Path_25" data-name="Path 25" d="M430.418-108.877a4.994,4.994,0,0,0-2.489,5.636c.366,1.244,0,1.318-5.563,1.171-5.051-.22-6.149,0-6.807,1.025s-.512,1.684.732,3.294c1.318,1.83,1.976,2.05,5.929,2.05,2.416,0,4.685.293,4.977.586.366.366.659,10.833.659,23.277,0,24.3,0,24.082,3.66,24.082,3.513,0,3.513,0,3.587-22.838.073-11.785.439-21.886.732-22.4.439-.732,1.976-.878,6.368-.439,5.563.439,5.783.439,6.368-1.244a6.62,6.62,0,0,0,.146-3.587c-.439-1.757-.732-1.83-6.222-2.05-6.441-.22-7.686-.878-7.686-3.879,0-2.123-1.391-5.856-2.123-5.709C432.467-109.828,431.442-109.389,430.418-108.877Z" transform="translate(531.547 627.477)" fill="#fff"/>
      <path id="Path_26" data-name="Path 26" d="M474.267-109.248c-5.636.586-8.125,1.976-9.223,5.051-.732,2.123-.732,2.269,1.757,2.708a24.4,24.4,0,0,0,5.709.146l3.074-.366v5.563c0,3.074.293,13.029.659,22.179l.586,16.616-3.587.22c-3,.22-3.733.512-4.685,2.2-1.025,1.9-1.025,2.123.878,4.026,1.83,1.83,2.562,1.976,7.686,2.123a48.813,48.813,0,0,1,7.612.586c1.61.512,1.976.22,3.148-2.342a8.426,8.426,0,0,0,.878-4.319c-.439-1.464-3.294-3.147-5.124-3.147-1.464,0-1.757-2.782-2.708-22.764-.878-20.568-.805-21.227,4.465-24.155,2.123-1.171,2.928-2.123,2.928-3.367,0-1.61-.22-1.684-4.538-1.61C481.221-109.834,476.976-109.541,474.267-109.248Z" transform="translate(518.294 627.482)" fill="#fff"/>
      <path id="Path_27" data-name="Path 27" d="M516.879-108.048c-12.81,6.368-18.226,26.571-11.858,43.772,2.855,7.466,10.394,13.981,18.519,15.811,4.685,1.025,13.907,1.1,15.811.073a4.9,4.9,0,0,0,1.976-2.781c.732-2.781-1.244-4.1-8.93-6C519.66-60.4,513.219-63.984,510.8-69.254c-1.757-3.953-1.9-16.689-.22-22.325.952-3.367,1.464-4.026,4.172-5.27a18.282,18.282,0,0,1,6-1.391,27.545,27.545,0,0,0,5.563-.659c2.489-.586,5.709-.293,11.492,1.025,3.221.732,3.148-.952-.366-4.831C531.079-109.732,523.979-111.635,516.879-108.048Z" transform="translate(508.182 627.454)" fill="#fff"/>
      <path id="Path_28" data-name="Path 28" d="M160.349-108.053c-5.417,1.976-14.054,21.3-17.787,39.966-2.05,10.028-1.976,13.029.366,16.1,3.44,4.465,4.538,2.928,6.075-8.71,2.05-15.079,5.49-24.887,10.174-29.425l2.2-2.05,1.1,2.05c1.684,3.44,3.294,8.784,5.709,19.69,1.244,5.636,2.782,10.833,3.44,11.638.952,1.025,1.976,1.244,4.611,1.025,4.9-.512,7.466-2.708,11.419-9.955,3.733-6.881,7.393-11.346,10.54-12.956,2.562-1.391,2.489-1.537,3.953,11.492,1.61,15.005,2.416,20.276,3.733,24.155,1.684,5.124,5.27,7.173,7.905,4.538,1.537-1.537,1.464-3.806-.293-8.857-1.83-5.49-3.367-14.2-4.758-26.937-.586-5.636-1.464-12.224-1.9-14.566-.952-5.563-4.611-13.761-6.661-15.005-1.391-.878-1.757-.805-2.782.512-.659.805-2.635,5.563-4.319,10.54-1.757,4.9-4.245,11.272-5.636,14.127-2.269,4.831-7.759,12.078-9.076,12.078-1.1,0-4.831-10.906-8.125-23.2C166.278-107.1,164.668-109.663,160.349-108.053Z" transform="translate(605.007 627.092)" fill="#fff"/>
    </g>
    <rect id="Rectangle_32" data-name="Rectangle 32" width="491" height="488" rx="28" fill="#333" opacity="0.95" style="mix-blend-mode: multiply;isolation: isolate"/>
  </g>
  <text id="Nishida_s_Gymnasitcs" data-name="Nishida&apos;s Gymnasitcs" transform="translate(242 73)" fill="#fff" font-size="50" font-family="ProximaNova-Semibold, Proxima Nova" font-weight="600"><tspan x="-235" y="0">Nishida&apos;s Gymnasitcs</tspan></text>
  <text id="Project_Description:" data-name="Project Description:" transform="translate(246 247)" fill="#f5f5f5" font-size="45" font-family="ProximaNova-Semibold, Proxima Nova" font-weight="600"><tspan x="-196" y="0">Project Description:</tspan></text>
  <text id="_2" data-name="
2" transform="translate(403 307)" fill="#fbfbfb" font-size="55" font-family="FuturaPT-Book, Futura PT"><tspan x="0" y="0"></tspan><tspan font-size="105"><tspan x="0" y="135">2</tspan></tspan></text>
  <text id="Website_redesign_and_maintenance_of_the_original_Nishida_s_Gymnastics_group_of_clubs._" data-name="Website redesign and maintenance of the original Nishida&apos;s Gymnastics group of clubs. " transform="translate(63 263)" fill="#fff" font-size="18" font-family="FuturaPT-Book, Futura PT"><tspan x="9" y="18">Website redesign and maintenance of the original </tspan><tspan x="53" y="41">Nishida&apos;s Gymnastics group of clubs. </tspan></text>
  <text id="Nishida_s_Gymnastics_Group_of_companies_2016_-2022" data-name="Nishida&apos;s Gymnastics 
Group  of companies 2016 -2022" transform="translate(246 117)" fill="#fff" font-size="25" font-family="FuturaPT-Book, Futura PT"><tspan x="-106" y="0">Nishida&apos;s Gymnastics </tspan><tspan x="-165" y="28" xml:space="preserve">Group  of companies 2016 -2022</tspan></text>
</svg>
